<svg xmlns="http://www.w3.org/2000/svg" version="1.1" xmlns:xlink="http://www.w3.org/1999/xlink" xmlns:svgjs="http://svgjs.dev/svgjs" width="2000" height="313" viewBox="0 0 2000 313"><g transform="matrix(1,0,0,1,-1.2121212121212466,0.5417324616950054)"><svg viewBox="0 0 396 62" data-background-color="#0a1627" preserveAspectRatio="xMidYMid meet" height="313" width="2000" xmlns="http://www.w3.org/2000/svg" xmlns:xlink="http://www.w3.org/1999/xlink"><defs></defs><g id="tight-bounds" transform="matrix(1,0,0,1,0.2400000000000091,-0.10730802755620061)"><svg viewBox="0 0 395.52 62.21461468721667" height="62.21461468721667" width="395.52"><g><svg viewBox="0 0 395.52 62.21461468721667" height="62.21461468721667" width="395.52"><g><svg viewBox="0 0 395.52 62.21461468721667" height="62.21461468721667" width="395.52"><g><svg viewBox="0 0 395.52 62.21461468721667" height="62.21461468721667" width="395.52"><g><svg viewBox="0 0 395.52 62.21461468721667" height="62.21461468721667" width="395.52"><g transform="matrix(1,0,0,1,0,0)"><svg width="395.52" viewBox="1.399999976158142 -34.150001525878906 222.3400115966797 34.70000076293945" height="62.21461468721667" data-palette-color="#fe0039"><g class="undefined-text-0" data-fill-palette-color="primary" id="text-0"><path d="M44.65-1.2L44.65 0 30.6 0 30.6-1.2 34.4-1.65 33.1-27.3 23.05 0 20.4 0 8.4-27.05 7.45-2.45 11.65-1.2 11.65 0 1.4 0 1.4-1.2 5.55-2.65 6.55-31.75 2.3-32.25 2.3-33.4 12.25-33.4 23.55-7.05 33.3-33.4 43.95-33.4 44-32.25 39.7-31.75 40.8-1.65 44.65-1.2ZM82.9-16.8Q82.9-9.3 78.22-4.38 73.55 0.55 65.62 0.55 57.7 0.55 53.02-4.38 48.35-9.3 48.35-16.8 48.35-24.3 53.02-29.23 57.7-34.15 65.62-34.15 73.55-34.15 78.22-29.23 82.9-24.3 82.9-16.8ZM65.7-1L65.7-1Q75.3-1 75.3-16.8L75.3-16.8Q75.3-24.4 73.12-28.5 70.95-32.6 65.65-32.6 60.35-32.6 58.12-28.5 55.9-24.4 55.9-16.8L55.9-16.8Q55.9-1 65.7-1ZM83.6-32.2L83.6-33.4 98.3-33.4 98.3-32.2 94.35-31.75 104.25-6.85 113.75-30.9 109.35-32.2 109.35-33.4 119.8-33.4 119.8-32.2 116-30.85 103.6 0.3 100.6 0.3 87.45-31.75 83.6-32.2ZM135.94-1.2L135.94 0 120.59 0 120.59-1.2 124.94-1.65 124.94-31.75 120.59-32.2 120.59-33.4 135.94-33.4 135.94-32.2 131.59-31.75 131.59-1.65 135.94-1.2ZM166.29 0L139.24 0 139.24-1.2 143.59-1.65 143.59-31.75 139.24-32.2 139.24-33.4 164.74-33.4 164.74-26.3 163.14-26.3 161.19-31.6 150.24-31.75 150.24-18.3 159.94-18.3 161.49-22 162.89-22 162.89-12.7 161.44-12.7 159.94-16.5 150.24-16.5 150.24-1.6 162.69-1.75 165.29-7.45 166.89-7.45 166.29 0ZM185.34-1.2L185.34 0 169.99 0 169.99-1.2 174.34-1.65 174.34-31.75 169.99-32.2 169.99-33.4 185.34-33.4 185.34-32.2 180.99-31.75 180.99-1.65 185.34-1.2ZM223.74-16.8Q223.74-9.3 219.06-4.38 214.39 0.55 206.46 0.55 198.54 0.55 193.86-4.38 189.19-9.3 189.19-16.8 189.19-24.3 193.86-29.23 198.54-34.15 206.46-34.15 214.39-34.15 219.06-29.23 223.74-24.3 223.74-16.8ZM206.54-1L206.54-1Q216.14-1 216.14-16.8L216.14-16.8Q216.14-24.4 213.96-28.5 211.79-32.6 206.49-32.6 201.19-32.6 198.96-28.5 196.74-24.4 196.74-16.8L196.74-16.8Q196.74-1 206.54-1Z" fill="#fe0039" data-fill-palette-color="primary"></path></g></svg></g></svg></g></svg></g></svg></g><g></g></svg></g></svg><rect width="395.52" height="62.21461468721667" fill="none" stroke="none" visibility="hidden"></rect></g></svg></g></svg>